<svg xmlns="http://www.w3.org/2000/svg" viewBox="0 0 660 10" width="100%" height="100%">
  <defs>
    <style>
      @import url('https://fonts.googleapis.com/css2?family=Fredoka:wght@600&amp;family=Montserrat:wght@700&amp;display=swap');
      
      .bg-rect {
        fill: #161f2c;
      }
      .title-text {
        font-family: 'Fredoka', 'Arial Rounded MT Bold', sans-serif;
        font-weight: 600;
        fill: #FFFFFF;
      }
      .subtitle-text {
        font-family: 'Montserrat', 'Helvetica Neue', Arial, sans-serif;
        font-weight: 700;
        fill: #FFFFFF;
        letter-spacing: 0.32em;
      }
    </style>
    
    <path id="long-ray" d="M -2.5 -38 L 2.5 -38 L 0 -88 Z" fill="#26dfa4" />
    <path id="short-ray" d="M -2 -38 L 2 -38 L 0 -64 Z" fill="#26dfa4" />
  </defs>

  <g id="logo-title">
        <text class="title-text" transform="matrix(1,0,0,0.9,0,57.2)" font-size="135" x="37" y="-120.2">
            S
        </text>
        <g transform="matrix(1,0,0,0.9,295,104.2)">
            <use transform="rotate(0) matrix(1,0,0,1,-108,-226.5)" href="#long-ray"/>
            <use transform="rotate(90) matrix(1,0,0,1,-226.5,108)" href="#long-ray"/>
            <use transform="rotate(180) matrix(1,0,0,1,108,226.5)" href="#long-ray"/>
            <use transform="rotate(270) matrix(1,0,0,1,226.5,-108)" href="#long-ray"/>
            <use transform="rotate(10) matrix(1,0,0,1,-145.7,-204.2)" href="#short-ray"/>
            <use transform="rotate(20) matrix(1,0,0,1,-179,-175.9)" href="#short-ray"/>
            <use transform="rotate(30) matrix(1,0,0,1,-206.7,-142.1)" href="#short-ray"/>
            <use transform="rotate(40) matrix(1,0,0,1,-228.3,-104)" href="#short-ray"/>
            <use transform="rotate(50) matrix(1,0,0,1,-242.9,-62.9)" href="#short-ray"/>
            <use transform="rotate(60) matrix(1,0,0,1,-250.1,-19.7)" href="#short-ray"/>
            <use transform="rotate(70) matrix(1,0,0,1,-249.8,24)" href="#short-ray"/>
            <use transform="rotate(80) matrix(1,0,0,1,-241.7,67)" href="#short-ray"/>
            <use transform="rotate(100) matrix(1,0,0,1,-204.2,145.7)" href="#short-ray"/>
            <use transform="rotate(110) matrix(1,0,0,1,-175.9,179)" href="#short-ray"/>
            <use transform="rotate(120) matrix(1,0,0,1,-142.1,206.7)" href="#short-ray"/>
            <use transform="rotate(130) matrix(1,0,0,1,-104,228.3)" href="#short-ray"/>
            <use transform="rotate(140) matrix(1,0,0,1,-62.9,242.9)" href="#short-ray"/>
            <use transform="rotate(150) matrix(1,0,0,1,-19.7,250.1)" href="#short-ray"/>
            <use transform="rotate(160) matrix(1,0,0,1,24,249.8)" href="#short-ray"/>
            <use transform="rotate(170) matrix(1,0,0,1,67,241.7)" href="#short-ray"/>
            <use transform="rotate(190) matrix(1,0,0,1,145.7,204.2)" href="#short-ray"/>
            <use transform="rotate(200) matrix(1,0,0,1,179,175.9)" href="#short-ray"/>
            <use transform="rotate(210) matrix(1,0,0,1,206.7,142.1)" href="#short-ray"/>
            <use transform="rotate(220) matrix(1,0,0,1,228.3,104)" href="#short-ray"/>
            <use transform="rotate(230) matrix(1,0,0,1,242.9,62.9)" href="#short-ray"/>
            <use transform="rotate(240) matrix(1,0,0,1,250.1,19.7)" href="#short-ray"/>
            <use transform="rotate(250) matrix(1,0,0,1,249.8,-24)" href="#short-ray"/>
            <use transform="rotate(260) matrix(1,0,0,1,241.7,-67)" href="#short-ray"/>
            <use transform="rotate(280) matrix(1,0,0,1,204.2,-145.7)" href="#short-ray"/>
            <use transform="rotate(290) matrix(1,0,0,1,175.9,-179)" href="#short-ray"/>
            <use transform="rotate(300) matrix(1,0,0,1,142.1,-206.7)" href="#short-ray"/>
            <use transform="rotate(310) matrix(1,0,0,1,104,-228.3)" href="#short-ray"/>
            <use transform="rotate(320) matrix(1,0,0,1,62.9,-242.9)" href="#short-ray"/>
            <use transform="rotate(330) matrix(1,0,0,1,19.7,-250.1)" href="#short-ray"/>
            <use transform="rotate(340) matrix(1,0,0,1,-24,-249.8)" href="#short-ray"/>
            <use transform="rotate(350) matrix(1,0,0,1,-67,-241.7)" href="#short-ray"/>
            <circle fill="#26dfa4" cx="-108" cy="-226.5" r="38"/>
        </g>
        <text letter-spacing="12" class="title-text" transform="matrix(1,0,0,0.9,0,57.2)" font-size="135" x="287" y="-120.2">
            LAR
        </text>
    </g>
</svg>
